<mxfile host="app.diagrams.net" modified="2020-11-23T18:17:22.866Z" agent="5.0 (Macintosh; Intel Mac OS X 10_15_7) AppleWebKit/537.36 (KHTML, like Gecko) Chrome/86.0.4240.198 Safari/537.36" etag="34zS3JJaXs2MFqC2SgsH" version="13.10.0" type="github">
  <diagram id="vqAz7mFe_bX8_XPS133d" name="Page-1">
    <mxGraphModel dx="1426" dy="794" grid="1" gridSize="10" guides="1" tooltips="1" connect="1" arrows="1" fold="1" page="1" pageScale="1" pageWidth="850" pageHeight="1100" math="0" shadow="0">
      <root>
        <mxCell id="0" />
        <mxCell id="1" parent="0" />
        <mxCell id="3avs3_zd8cKEyKvQoN6--27" value="" style="whiteSpace=wrap;html=1;aspect=fixed;" parent="1" vertex="1">
          <mxGeometry x="40" y="110" width="760" height="760" as="geometry" />
        </mxCell>
        <mxCell id="lcX1lfoyKaqcj_of0QZ5-1" value="&lt;font style=&quot;font-size: 32px&quot;&gt;pets-r-us&lt;/font&gt;" style="rounded=0;whiteSpace=wrap;html=1;align=left;" parent="1" vertex="1">
          <mxGeometry x="40" y="40" width="760" height="40" as="geometry" />
        </mxCell>
        <mxCell id="lcX1lfoyKaqcj_of0QZ5-2" value="" style="rounded=0;whiteSpace=wrap;html=1;" parent="1" vertex="1">
          <mxGeometry x="40" y="80" width="760" height="30" as="geometry" />
        </mxCell>
        <mxCell id="lcX1lfoyKaqcj_of0QZ5-3" value="&lt;font color=&quot;#ff0000&quot;&gt;This will be an image carousel for marketing purposes.&lt;/font&gt;" style="whiteSpace=wrap;html=1;aspect=fixed;" parent="1" vertex="1">
          <mxGeometry x="220" y="160" width="400" height="400" as="geometry" />
        </mxCell>
        <mxCell id="lcX1lfoyKaqcj_of0QZ5-4" value="" style="shape=image;html=1;verticalAlign=top;verticalLabelPosition=bottom;labelBackgroundColor=#ffffff;imageAspect=0;aspect=fixed;image=https://cdn4.iconfinder.com/data/icons/common-toolbar/36/Cut-2-128.png" parent="1" vertex="1">
          <mxGeometry x="119" y="682" width="128" height="128" as="geometry" />
        </mxCell>
        <mxCell id="lcX1lfoyKaqcj_of0QZ5-5" value="" style="shape=image;html=1;verticalAlign=top;verticalLabelPosition=bottom;labelBackgroundColor=#ffffff;imageAspect=0;aspect=fixed;image=https://cdn4.iconfinder.com/data/icons/general-office/91/General_Office_06-128.png" parent="1" vertex="1">
          <mxGeometry x="356" y="680" width="128" height="128" as="geometry" />
        </mxCell>
        <mxCell id="lcX1lfoyKaqcj_of0QZ5-6" value="" style="html=1;verticalLabelPosition=bottom;align=center;labelBackgroundColor=#ffffff;verticalAlign=top;strokeWidth=2;strokeColor=#0080F0;shadow=0;dashed=0;shape=mxgraph.ios7.icons.home;" parent="1" vertex="1">
          <mxGeometry x="609" y="691" width="110" height="110" as="geometry" />
        </mxCell>
        <mxCell id="lcX1lfoyKaqcj_of0QZ5-8" value="&lt;font style=&quot;font-size: 30px&quot;&gt;Appointment Services&lt;/font&gt;" style="text;html=1;align=center;verticalAlign=middle;resizable=0;points=[];autosize=1;" parent="1" vertex="1">
          <mxGeometry x="270" y="610" width="310" height="30" as="geometry" />
        </mxCell>
        <mxCell id="lcX1lfoyKaqcj_of0QZ5-9" value="&lt;font style=&quot;font-size: 20px&quot;&gt;&lt;u&gt;Grooming&lt;/u&gt;&lt;/font&gt;" style="text;html=1;align=center;verticalAlign=middle;resizable=0;points=[];autosize=1;" parent="1" vertex="1">
          <mxGeometry x="119" y="810" width="100" height="20" as="geometry" />
        </mxCell>
        <mxCell id="lcX1lfoyKaqcj_of0QZ5-10" value="&lt;font style=&quot;font-size: 20px&quot;&gt;&lt;u&gt;Training&lt;/u&gt;&lt;/font&gt;" style="text;html=1;align=center;verticalAlign=middle;resizable=0;points=[];autosize=1;" parent="1" vertex="1">
          <mxGeometry x="374" y="810" width="90" height="20" as="geometry" />
        </mxCell>
        <mxCell id="lcX1lfoyKaqcj_of0QZ5-11" value="&lt;font style=&quot;font-size: 20px&quot;&gt;&lt;u&gt;Boarding&lt;/u&gt;&lt;/font&gt;" style="text;html=1;align=center;verticalAlign=middle;resizable=0;points=[];autosize=1;" parent="1" vertex="1">
          <mxGeometry x="614" y="810" width="100" height="20" as="geometry" />
        </mxCell>
        <mxCell id="3avs3_zd8cKEyKvQoN6--1" value="Search..." style="rounded=0;whiteSpace=wrap;html=1;align=left;" parent="1" vertex="1">
          <mxGeometry x="320" y="50" width="180" height="20" as="geometry" />
        </mxCell>
        <mxCell id="3avs3_zd8cKEyKvQoN6--2" value="" style="shape=image;html=1;verticalAlign=top;verticalLabelPosition=bottom;labelBackgroundColor=#ffffff;imageAspect=0;aspect=fixed;image=https://cdn4.iconfinder.com/data/icons/basic-user-interface-elements/700/zoom-normal-regular-128.png" parent="1" vertex="1">
          <mxGeometry x="480" y="50" width="20" height="20" as="geometry" />
        </mxCell>
        <mxCell id="3avs3_zd8cKEyKvQoN6--5" value="" style="endArrow=none;html=1;" parent="1" edge="1">
          <mxGeometry width="50" height="50" relative="1" as="geometry">
            <mxPoint x="475" y="70" as="sourcePoint" />
            <mxPoint x="475" y="50" as="targetPoint" />
          </mxGeometry>
        </mxCell>
        <mxCell id="3avs3_zd8cKEyKvQoN6--6" value="" style="shape=image;html=1;verticalAlign=top;verticalLabelPosition=bottom;labelBackgroundColor=#ffffff;imageAspect=0;aspect=fixed;image=https://cdn3.iconfinder.com/data/icons/fugue/icon_shadowless/user-silhouette.png" parent="1" vertex="1">
          <mxGeometry x="684" y="45" width="30" height="30" as="geometry" />
        </mxCell>
        <mxCell id="3avs3_zd8cKEyKvQoN6--7" value="" style="html=1;verticalLabelPosition=bottom;align=center;labelBackgroundColor=#ffffff;verticalAlign=top;strokeWidth=2;shadow=0;dashed=0;shape=mxgraph.ios7.icons.shopping_cart;" parent="1" vertex="1">
          <mxGeometry x="757" y="47.25" width="30" height="25.5" as="geometry" />
        </mxCell>
        <mxCell id="3avs3_zd8cKEyKvQoN6--8" value="" style="html=1;verticalLabelPosition=bottom;labelBackgroundColor=#ffffff;verticalAlign=top;shadow=0;dashed=0;strokeWidth=2;shape=mxgraph.ios7.misc.down;" parent="1" vertex="1">
          <mxGeometry x="714" y="57" width="12" height="6" as="geometry" />
        </mxCell>
        <mxCell id="3avs3_zd8cKEyKvQoN6--9" value="" style="endArrow=none;html=1;" parent="1" edge="1">
          <mxGeometry width="50" height="50" relative="1" as="geometry">
            <mxPoint x="743" y="80" as="sourcePoint" />
            <mxPoint x="743" y="40" as="targetPoint" />
          </mxGeometry>
        </mxCell>
        <mxCell id="3avs3_zd8cKEyKvQoN6--10" value="Shop" style="rounded=1;whiteSpace=wrap;html=1;strokeColor=#000000;align=center;" parent="1" vertex="1">
          <mxGeometry x="60" y="85" width="100" height="20" as="geometry" />
        </mxCell>
        <mxCell id="3avs3_zd8cKEyKvQoN6--11" value="Services" style="rounded=1;whiteSpace=wrap;html=1;strokeColor=#000000;align=center;" parent="1" vertex="1">
          <mxGeometry x="354" y="85" width="110" height="20" as="geometry" />
        </mxCell>
        <mxCell id="3avs3_zd8cKEyKvQoN6--12" value="Appointments" style="rounded=1;whiteSpace=wrap;html=1;strokeColor=#000000;align=center;" parent="1" vertex="1">
          <mxGeometry x="665" y="85" width="110" height="20" as="geometry" />
        </mxCell>
        <mxCell id="3avs3_zd8cKEyKvQoN6--13" value="" style="html=1;verticalLabelPosition=bottom;labelBackgroundColor=#ffffff;verticalAlign=top;shadow=0;dashed=0;strokeWidth=2;shape=mxgraph.ios7.misc.down;" parent="1" vertex="1">
          <mxGeometry x="140" y="92" width="12" height="6" as="geometry" />
        </mxCell>
        <mxCell id="3avs3_zd8cKEyKvQoN6--14" value="" style="html=1;verticalLabelPosition=bottom;labelBackgroundColor=#ffffff;verticalAlign=top;shadow=0;dashed=0;strokeWidth=2;shape=mxgraph.ios7.misc.down;" parent="1" vertex="1">
          <mxGeometry x="440" y="92" width="12" height="6" as="geometry" />
        </mxCell>
        <mxCell id="3avs3_zd8cKEyKvQoN6--15" value="" style="html=1;verticalLabelPosition=bottom;labelBackgroundColor=#ffffff;verticalAlign=top;shadow=0;dashed=0;strokeWidth=2;shape=mxgraph.ios7.misc.down;" parent="1" vertex="1">
          <mxGeometry x="757" y="92" width="12" height="6" as="geometry" />
        </mxCell>
        <mxCell id="3avs3_zd8cKEyKvQoN6--16" value="" style="triangle;whiteSpace=wrap;html=1;strokeColor=#000000;" parent="1" vertex="1">
          <mxGeometry x="649" y="340" width="30" height="40" as="geometry" />
        </mxCell>
        <mxCell id="3avs3_zd8cKEyKvQoN6--17" value="" style="triangle;whiteSpace=wrap;html=1;strokeColor=#000000;direction=west;" parent="1" vertex="1">
          <mxGeometry x="160" y="340" width="30" height="40" as="geometry" />
        </mxCell>
        <mxCell id="3avs3_zd8cKEyKvQoN6--18" value="" style="ellipse;whiteSpace=wrap;html=1;aspect=fixed;strokeColor=#000000;" parent="1" vertex="1">
          <mxGeometry x="394" y="540" width="10" height="10" as="geometry" />
        </mxCell>
        <mxCell id="3avs3_zd8cKEyKvQoN6--19" value="" style="ellipse;whiteSpace=wrap;html=1;aspect=fixed;strokeColor=#000000;" parent="1" vertex="1">
          <mxGeometry x="406" y="540" width="10" height="10" as="geometry" />
        </mxCell>
        <mxCell id="3avs3_zd8cKEyKvQoN6--20" value="" style="ellipse;whiteSpace=wrap;html=1;aspect=fixed;strokeColor=#000000;" parent="1" vertex="1">
          <mxGeometry x="418" y="540" width="10" height="10" as="geometry" />
        </mxCell>
        <mxCell id="3avs3_zd8cKEyKvQoN6--23" value="" style="ellipse;whiteSpace=wrap;html=1;aspect=fixed;strokeColor=#000000;" parent="1" vertex="1">
          <mxGeometry x="430" y="540" width="10" height="10" as="geometry" />
        </mxCell>
        <mxCell id="3avs3_zd8cKEyKvQoN6--24" value="" style="ellipse;whiteSpace=wrap;html=1;aspect=fixed;strokeColor=#000000;" parent="1" vertex="1">
          <mxGeometry x="442" y="540" width="10" height="10" as="geometry" />
        </mxCell>
        <mxCell id="3avs3_zd8cKEyKvQoN6--38" value="&lt;font color=&quot;#ff0000&quot;&gt;On hover these buttons will be dropdown lists of clickable events. For example Appointments &amp;gt; Grooming, Boarding, etc.&lt;/font&gt;" style="text;html=1;strokeColor=none;fillColor=none;align=left;verticalAlign=middle;whiteSpace=wrap;rounded=0;" parent="1" vertex="1">
          <mxGeometry x="70" y="130" width="700" height="20" as="geometry" />
        </mxCell>
        <mxCell id="3avs3_zd8cKEyKvQoN6--41" value="" style="endArrow=classic;html=1;strokeColor=#FF0000;" parent="1" edge="1">
          <mxGeometry width="50" height="50" relative="1" as="geometry">
            <mxPoint x="700" y="130" as="sourcePoint" />
            <mxPoint x="719" y="110" as="targetPoint" />
          </mxGeometry>
        </mxCell>
        <mxCell id="3avs3_zd8cKEyKvQoN6--42" value="" style="endArrow=classic;html=1;strokeColor=#FF0000;" parent="1" edge="1">
          <mxGeometry width="50" height="50" relative="1" as="geometry">
            <mxPoint x="410" y="130" as="sourcePoint" />
            <mxPoint x="410" y="115" as="targetPoint" />
          </mxGeometry>
        </mxCell>
        <mxCell id="3avs3_zd8cKEyKvQoN6--43" value="Explanatory text in &lt;font color=&quot;#ff0000&quot;&gt;red&lt;/font&gt;" style="text;html=1;align=left;verticalAlign=middle;resizable=0;points=[];autosize=1;" parent="1" vertex="1">
          <mxGeometry x="40" y="10" width="130" height="20" as="geometry" />
        </mxCell>
        <mxCell id="3avs3_zd8cKEyKvQoN6--45" value="" style="endArrow=classic;html=1;strokeColor=#FF0000;exitX=0.151;exitY=-0.2;exitDx=0;exitDy=0;exitPerimeter=0;" parent="1" source="3avs3_zd8cKEyKvQoN6--38" edge="1">
          <mxGeometry width="50" height="50" relative="1" as="geometry">
            <mxPoint x="70" y="165" as="sourcePoint" />
            <mxPoint x="130" y="115" as="targetPoint" />
          </mxGeometry>
        </mxCell>
        <mxCell id="3avs3_zd8cKEyKvQoN6--46" value="&lt;font color=&quot;#ff0000&quot;&gt;These links will take users to appointment scheduling&lt;/font&gt;" style="text;html=1;align=left;verticalAlign=middle;resizable=0;points=[];autosize=1;" parent="1" vertex="1">
          <mxGeometry x="275" y="920" width="300" height="20" as="geometry" />
        </mxCell>
        <mxCell id="3avs3_zd8cKEyKvQoN6--47" value="" style="endArrow=classic;html=1;strokeColor=#FF0000;" parent="1" edge="1">
          <mxGeometry width="50" height="50" relative="1" as="geometry">
            <mxPoint x="559" y="920" as="sourcePoint" />
            <mxPoint x="610" y="870" as="targetPoint" />
          </mxGeometry>
        </mxCell>
        <mxCell id="3avs3_zd8cKEyKvQoN6--48" value="" style="endArrow=classic;html=1;strokeColor=#FF0000;" parent="1" target="3avs3_zd8cKEyKvQoN6--27" edge="1">
          <mxGeometry width="50" height="50" relative="1" as="geometry">
            <mxPoint x="430" y="910" as="sourcePoint" />
            <mxPoint x="480" y="860" as="targetPoint" />
          </mxGeometry>
        </mxCell>
        <mxCell id="3avs3_zd8cKEyKvQoN6--49" value="" style="endArrow=classic;html=1;strokeColor=#FF0000;" parent="1" edge="1">
          <mxGeometry width="50" height="50" relative="1" as="geometry">
            <mxPoint x="300" y="910" as="sourcePoint" />
            <mxPoint x="250" y="880" as="targetPoint" />
          </mxGeometry>
        </mxCell>
        <mxCell id="4yytLFHdvMiJD-wZ6Ume-1" value="" style="whiteSpace=wrap;html=1;" parent="1" vertex="1">
          <mxGeometry x="40" y="1170" width="760" height="980" as="geometry" />
        </mxCell>
        <mxCell id="4yytLFHdvMiJD-wZ6Ume-2" value="&lt;font color=&quot;#ff0000&quot;&gt;User clicks to schedule appointment&lt;/font&gt;" style="text;html=1;align=center;verticalAlign=middle;resizable=0;points=[];autosize=1;" parent="1" vertex="1">
          <mxGeometry x="320" y="1140" width="210" height="20" as="geometry" />
        </mxCell>
        <mxCell id="4yytLFHdvMiJD-wZ6Ume-3" value="" style="strokeWidth=1;shadow=0;dashed=0;align=center;html=1;shape=mxgraph.mockup.forms.rrect;rSize=5;strokeColor=#999999;fillColor=#ffffff;" parent="1" vertex="1">
          <mxGeometry x="340" y="1340" width="160" height="175" as="geometry" />
        </mxCell>
        <mxCell id="4yytLFHdvMiJD-wZ6Ume-4" value="October 2014" style="strokeWidth=1;shadow=0;dashed=0;align=center;html=1;shape=mxgraph.mockup.forms.anchor;fontColor=#999999;" parent="4yytLFHdvMiJD-wZ6Ume-3" vertex="1">
          <mxGeometry x="30" y="8" width="100" height="20" as="geometry" />
        </mxCell>
        <mxCell id="4yytLFHdvMiJD-wZ6Ume-5" value="&lt;" style="strokeWidth=1;shadow=0;dashed=0;align=center;html=1;shape=mxgraph.mockup.forms.rrect;rSize=4;strokeColor=#999999;fontColor=#008cff;fontSize=19;fontStyle=1;" parent="4yytLFHdvMiJD-wZ6Ume-3" vertex="1">
          <mxGeometry x="8" y="8" width="25" height="20" as="geometry" />
        </mxCell>
        <mxCell id="4yytLFHdvMiJD-wZ6Ume-6" value="&gt;" style="strokeWidth=1;shadow=0;dashed=0;align=center;html=1;shape=mxgraph.mockup.forms.rrect;rSize=4;strokeColor=#999999;fontColor=#008cff;fontSize=19;fontStyle=1;" parent="4yytLFHdvMiJD-wZ6Ume-3" vertex="1">
          <mxGeometry x="127" y="8" width="25" height="20" as="geometry" />
        </mxCell>
        <mxCell id="4yytLFHdvMiJD-wZ6Ume-7" value="Mo" style="strokeWidth=1;shadow=0;dashed=0;align=center;html=1;shape=mxgraph.mockup.forms.anchor;fontColor=#999999;" parent="4yytLFHdvMiJD-wZ6Ume-3" vertex="1">
          <mxGeometry x="10" y="28" width="20" height="20" as="geometry" />
        </mxCell>
        <mxCell id="4yytLFHdvMiJD-wZ6Ume-8" value="Tu" style="strokeWidth=1;shadow=0;dashed=0;align=center;html=1;shape=mxgraph.mockup.forms.anchor;fontColor=#999999;" parent="4yytLFHdvMiJD-wZ6Ume-3" vertex="1">
          <mxGeometry x="30" y="28" width="20" height="20" as="geometry" />
        </mxCell>
        <mxCell id="4yytLFHdvMiJD-wZ6Ume-9" value="We" style="strokeWidth=1;shadow=0;dashed=0;align=center;html=1;shape=mxgraph.mockup.forms.anchor;fontColor=#999999;" parent="4yytLFHdvMiJD-wZ6Ume-3" vertex="1">
          <mxGeometry x="50" y="28" width="20" height="20" as="geometry" />
        </mxCell>
        <mxCell id="4yytLFHdvMiJD-wZ6Ume-10" value="Th" style="strokeWidth=1;shadow=0;dashed=0;align=center;html=1;shape=mxgraph.mockup.forms.anchor;fontColor=#999999;" parent="4yytLFHdvMiJD-wZ6Ume-3" vertex="1">
          <mxGeometry x="70" y="28" width="20" height="20" as="geometry" />
        </mxCell>
        <mxCell id="4yytLFHdvMiJD-wZ6Ume-11" value="Fr" style="strokeWidth=1;shadow=0;dashed=0;align=center;html=1;shape=mxgraph.mockup.forms.anchor;fontColor=#999999;" parent="4yytLFHdvMiJD-wZ6Ume-3" vertex="1">
          <mxGeometry x="90" y="28" width="20" height="20" as="geometry" />
        </mxCell>
        <mxCell id="4yytLFHdvMiJD-wZ6Ume-12" value="Sa" style="strokeWidth=1;shadow=0;dashed=0;align=center;html=1;shape=mxgraph.mockup.forms.anchor;fontColor=#999999;" parent="4yytLFHdvMiJD-wZ6Ume-3" vertex="1">
          <mxGeometry x="110" y="28" width="20" height="20" as="geometry" />
        </mxCell>
        <mxCell id="4yytLFHdvMiJD-wZ6Ume-13" value="Su" style="strokeWidth=1;shadow=0;dashed=0;align=center;html=1;shape=mxgraph.mockup.forms.anchor;fontColor=#999999;" parent="4yytLFHdvMiJD-wZ6Ume-3" vertex="1">
          <mxGeometry x="130" y="28" width="20" height="20" as="geometry" />
        </mxCell>
        <mxCell id="4yytLFHdvMiJD-wZ6Ume-14" value="1" style="strokeWidth=1;shadow=0;dashed=0;align=center;html=1;shape=mxgraph.mockup.forms.rrect;rSize=0;strokeColor=#999999;fontColor=#999999;" parent="4yytLFHdvMiJD-wZ6Ume-3" vertex="1">
          <mxGeometry x="10" y="48" width="20" height="20" as="geometry" />
        </mxCell>
        <mxCell id="4yytLFHdvMiJD-wZ6Ume-15" value="2" style="strokeWidth=1;shadow=0;dashed=0;align=center;html=1;shape=mxgraph.mockup.forms.rrect;rSize=0;strokeColor=#999999;fontColor=#999999;" parent="4yytLFHdvMiJD-wZ6Ume-3" vertex="1">
          <mxGeometry x="30" y="48" width="20" height="20" as="geometry" />
        </mxCell>
        <mxCell id="4yytLFHdvMiJD-wZ6Ume-16" value="3" style="strokeWidth=1;shadow=0;dashed=0;align=center;html=1;shape=mxgraph.mockup.forms.rrect;rSize=0;strokeColor=#999999;fontColor=#999999;" parent="4yytLFHdvMiJD-wZ6Ume-3" vertex="1">
          <mxGeometry x="50" y="48" width="20" height="20" as="geometry" />
        </mxCell>
        <mxCell id="4yytLFHdvMiJD-wZ6Ume-17" value="4" style="strokeWidth=1;shadow=0;dashed=0;align=center;html=1;shape=mxgraph.mockup.forms.rrect;rSize=0;strokeColor=#999999;fontColor=#999999;" parent="4yytLFHdvMiJD-wZ6Ume-3" vertex="1">
          <mxGeometry x="70" y="48" width="20" height="20" as="geometry" />
        </mxCell>
        <mxCell id="4yytLFHdvMiJD-wZ6Ume-18" value="5" style="strokeWidth=1;shadow=0;dashed=0;align=center;html=1;shape=mxgraph.mockup.forms.rrect;rSize=0;strokeColor=#999999;fontColor=#999999;" parent="4yytLFHdvMiJD-wZ6Ume-3" vertex="1">
          <mxGeometry x="90" y="48" width="20" height="20" as="geometry" />
        </mxCell>
        <mxCell id="4yytLFHdvMiJD-wZ6Ume-19" value="6" style="strokeWidth=1;shadow=0;dashed=0;align=center;html=1;shape=mxgraph.mockup.forms.rrect;rSize=0;strokeColor=#999999;fontColor=#999999;" parent="4yytLFHdvMiJD-wZ6Ume-3" vertex="1">
          <mxGeometry x="110" y="48" width="20" height="20" as="geometry" />
        </mxCell>
        <mxCell id="4yytLFHdvMiJD-wZ6Ume-20" value="7" style="strokeWidth=1;shadow=0;dashed=0;align=center;html=1;shape=mxgraph.mockup.forms.rrect;rSize=0;strokeColor=#999999;fontColor=#999999;" parent="4yytLFHdvMiJD-wZ6Ume-3" vertex="1">
          <mxGeometry x="130" y="48" width="20" height="20" as="geometry" />
        </mxCell>
        <mxCell id="4yytLFHdvMiJD-wZ6Ume-21" value="8" style="strokeWidth=1;shadow=0;dashed=0;align=center;html=1;shape=mxgraph.mockup.forms.rrect;rSize=0;strokeColor=#999999;fontColor=#999999;" parent="4yytLFHdvMiJD-wZ6Ume-3" vertex="1">
          <mxGeometry x="10" y="68" width="20" height="20" as="geometry" />
        </mxCell>
        <mxCell id="4yytLFHdvMiJD-wZ6Ume-22" value="9" style="strokeWidth=1;shadow=0;dashed=0;align=center;html=1;shape=mxgraph.mockup.forms.rrect;rSize=0;strokeColor=#999999;fontColor=#999999;" parent="4yytLFHdvMiJD-wZ6Ume-3" vertex="1">
          <mxGeometry x="30" y="68" width="20" height="20" as="geometry" />
        </mxCell>
        <mxCell id="4yytLFHdvMiJD-wZ6Ume-23" value="10" style="strokeWidth=1;shadow=0;dashed=0;align=center;html=1;shape=mxgraph.mockup.forms.rrect;rSize=0;strokeColor=#999999;fontColor=#999999;" parent="4yytLFHdvMiJD-wZ6Ume-3" vertex="1">
          <mxGeometry x="50" y="68" width="20" height="20" as="geometry" />
        </mxCell>
        <mxCell id="4yytLFHdvMiJD-wZ6Ume-24" value="11" style="strokeWidth=1;shadow=0;dashed=0;align=center;html=1;shape=mxgraph.mockup.forms.rrect;rSize=0;strokeColor=#999999;fontColor=#999999;" parent="4yytLFHdvMiJD-wZ6Ume-3" vertex="1">
          <mxGeometry x="70" y="68" width="20" height="20" as="geometry" />
        </mxCell>
        <mxCell id="4yytLFHdvMiJD-wZ6Ume-25" value="12" style="strokeWidth=1;shadow=0;dashed=0;align=center;html=1;shape=mxgraph.mockup.forms.rrect;rSize=0;strokeColor=#999999;fontColor=#999999;" parent="4yytLFHdvMiJD-wZ6Ume-3" vertex="1">
          <mxGeometry x="90" y="68" width="20" height="20" as="geometry" />
        </mxCell>
        <mxCell id="4yytLFHdvMiJD-wZ6Ume-26" value="13" style="strokeWidth=1;shadow=0;dashed=0;align=center;html=1;shape=mxgraph.mockup.forms.rrect;rSize=0;strokeColor=#999999;fontColor=#999999;" parent="4yytLFHdvMiJD-wZ6Ume-3" vertex="1">
          <mxGeometry x="110" y="68" width="20" height="20" as="geometry" />
        </mxCell>
        <mxCell id="4yytLFHdvMiJD-wZ6Ume-27" value="14" style="strokeWidth=1;shadow=0;dashed=0;align=center;html=1;shape=mxgraph.mockup.forms.rrect;rSize=0;strokeColor=#999999;fontColor=#999999;" parent="4yytLFHdvMiJD-wZ6Ume-3" vertex="1">
          <mxGeometry x="130" y="68" width="20" height="20" as="geometry" />
        </mxCell>
        <mxCell id="4yytLFHdvMiJD-wZ6Ume-28" value="15" style="strokeWidth=1;shadow=0;dashed=0;align=center;html=1;shape=mxgraph.mockup.forms.rrect;rSize=0;strokeColor=#999999;fontColor=#999999;" parent="4yytLFHdvMiJD-wZ6Ume-3" vertex="1">
          <mxGeometry x="10" y="88" width="20" height="20" as="geometry" />
        </mxCell>
        <mxCell id="4yytLFHdvMiJD-wZ6Ume-29" value="16" style="strokeWidth=1;shadow=0;dashed=0;align=center;html=1;shape=mxgraph.mockup.forms.rrect;rSize=0;strokeColor=#999999;fontColor=#999999;" parent="4yytLFHdvMiJD-wZ6Ume-3" vertex="1">
          <mxGeometry x="30" y="88" width="20" height="20" as="geometry" />
        </mxCell>
        <mxCell id="4yytLFHdvMiJD-wZ6Ume-30" value="17" style="strokeWidth=1;shadow=0;dashed=0;align=center;html=1;shape=mxgraph.mockup.forms.rrect;rSize=0;strokeColor=#999999;fontColor=#999999;" parent="4yytLFHdvMiJD-wZ6Ume-3" vertex="1">
          <mxGeometry x="50" y="88" width="20" height="20" as="geometry" />
        </mxCell>
        <mxCell id="4yytLFHdvMiJD-wZ6Ume-31" value="18" style="strokeWidth=1;shadow=0;dashed=0;align=center;html=1;shape=mxgraph.mockup.forms.rrect;rSize=0;strokeColor=#999999;fontColor=#999999;" parent="4yytLFHdvMiJD-wZ6Ume-3" vertex="1">
          <mxGeometry x="70" y="88" width="20" height="20" as="geometry" />
        </mxCell>
        <mxCell id="4yytLFHdvMiJD-wZ6Ume-32" value="19" style="strokeWidth=1;shadow=0;dashed=0;align=center;html=1;shape=mxgraph.mockup.forms.rrect;rSize=0;strokeColor=#999999;fontColor=#999999;" parent="4yytLFHdvMiJD-wZ6Ume-3" vertex="1">
          <mxGeometry x="90" y="88" width="20" height="20" as="geometry" />
        </mxCell>
        <mxCell id="4yytLFHdvMiJD-wZ6Ume-33" value="20" style="strokeWidth=1;shadow=0;dashed=0;align=center;html=1;shape=mxgraph.mockup.forms.rrect;rSize=0;strokeColor=#999999;fontColor=#999999;" parent="4yytLFHdvMiJD-wZ6Ume-3" vertex="1">
          <mxGeometry x="110" y="88" width="20" height="20" as="geometry" />
        </mxCell>
        <mxCell id="4yytLFHdvMiJD-wZ6Ume-34" value="21" style="strokeWidth=1;shadow=0;dashed=0;align=center;html=1;shape=mxgraph.mockup.forms.rrect;rSize=0;strokeColor=#999999;fontColor=#999999;" parent="4yytLFHdvMiJD-wZ6Ume-3" vertex="1">
          <mxGeometry x="130" y="88" width="20" height="20" as="geometry" />
        </mxCell>
        <mxCell id="4yytLFHdvMiJD-wZ6Ume-35" value="22" style="strokeWidth=1;shadow=0;dashed=0;align=center;html=1;shape=mxgraph.mockup.forms.rrect;rSize=0;strokeColor=#999999;fontColor=#999999;" parent="4yytLFHdvMiJD-wZ6Ume-3" vertex="1">
          <mxGeometry x="10" y="108" width="20" height="20" as="geometry" />
        </mxCell>
        <mxCell id="4yytLFHdvMiJD-wZ6Ume-36" value="23" style="strokeWidth=1;shadow=0;dashed=0;align=center;html=1;shape=mxgraph.mockup.forms.rrect;rSize=0;strokeColor=#999999;fontColor=#999999;" parent="4yytLFHdvMiJD-wZ6Ume-3" vertex="1">
          <mxGeometry x="30" y="108" width="20" height="20" as="geometry" />
        </mxCell>
        <mxCell id="4yytLFHdvMiJD-wZ6Ume-37" value="25" style="strokeWidth=1;shadow=0;dashed=0;align=center;html=1;shape=mxgraph.mockup.forms.rrect;rSize=0;strokeColor=#999999;fontColor=#999999;" parent="4yytLFHdvMiJD-wZ6Ume-3" vertex="1">
          <mxGeometry x="70" y="108" width="20" height="20" as="geometry" />
        </mxCell>
        <mxCell id="4yytLFHdvMiJD-wZ6Ume-38" value="26" style="strokeWidth=1;shadow=0;dashed=0;align=center;html=1;shape=mxgraph.mockup.forms.rrect;rSize=0;strokeColor=#999999;fontColor=#999999;" parent="4yytLFHdvMiJD-wZ6Ume-3" vertex="1">
          <mxGeometry x="90" y="108" width="20" height="20" as="geometry" />
        </mxCell>
        <mxCell id="4yytLFHdvMiJD-wZ6Ume-39" value="27" style="strokeWidth=1;shadow=0;dashed=0;align=center;html=1;shape=mxgraph.mockup.forms.rrect;rSize=0;strokeColor=#999999;fontColor=#999999;" parent="4yytLFHdvMiJD-wZ6Ume-3" vertex="1">
          <mxGeometry x="110" y="108" width="20" height="20" as="geometry" />
        </mxCell>
        <mxCell id="4yytLFHdvMiJD-wZ6Ume-40" value="28" style="strokeWidth=1;shadow=0;dashed=0;align=center;html=1;shape=mxgraph.mockup.forms.rrect;rSize=0;strokeColor=#999999;fontColor=#999999;" parent="4yytLFHdvMiJD-wZ6Ume-3" vertex="1">
          <mxGeometry x="130" y="108" width="20" height="20" as="geometry" />
        </mxCell>
        <mxCell id="4yytLFHdvMiJD-wZ6Ume-41" value="29" style="strokeWidth=1;shadow=0;dashed=0;align=center;html=1;shape=mxgraph.mockup.forms.rrect;rSize=0;strokeColor=#999999;fontColor=#999999;" parent="4yytLFHdvMiJD-wZ6Ume-3" vertex="1">
          <mxGeometry x="10" y="128" width="20" height="20" as="geometry" />
        </mxCell>
        <mxCell id="4yytLFHdvMiJD-wZ6Ume-42" value="30" style="strokeWidth=1;shadow=0;dashed=0;align=center;html=1;shape=mxgraph.mockup.forms.rrect;rSize=0;strokeColor=#999999;fontColor=#999999;" parent="4yytLFHdvMiJD-wZ6Ume-3" vertex="1">
          <mxGeometry x="30" y="128" width="20" height="20" as="geometry" />
        </mxCell>
        <mxCell id="4yytLFHdvMiJD-wZ6Ume-43" value="31" style="strokeWidth=1;shadow=0;dashed=0;align=center;html=1;shape=mxgraph.mockup.forms.rrect;rSize=0;strokeColor=#999999;fontColor=#999999;" parent="4yytLFHdvMiJD-wZ6Ume-3" vertex="1">
          <mxGeometry x="50" y="128" width="20" height="20" as="geometry" />
        </mxCell>
        <mxCell id="4yytLFHdvMiJD-wZ6Ume-44" value="1" style="strokeWidth=1;shadow=0;dashed=0;align=center;html=1;shape=mxgraph.mockup.forms.rrect;rSize=0;strokeColor=#999999;fontColor=#999999;fillColor=#ddeeff;" parent="4yytLFHdvMiJD-wZ6Ume-3" vertex="1">
          <mxGeometry x="70" y="128" width="20" height="20" as="geometry" />
        </mxCell>
        <mxCell id="4yytLFHdvMiJD-wZ6Ume-45" value="2" style="strokeWidth=1;shadow=0;dashed=0;align=center;html=1;shape=mxgraph.mockup.forms.rrect;rSize=0;strokeColor=#999999;fontColor=#999999;fillColor=#ddeeff;" parent="4yytLFHdvMiJD-wZ6Ume-3" vertex="1">
          <mxGeometry x="90" y="128" width="20" height="20" as="geometry" />
        </mxCell>
        <mxCell id="4yytLFHdvMiJD-wZ6Ume-46" value="3" style="strokeWidth=1;shadow=0;dashed=0;align=center;html=1;shape=mxgraph.mockup.forms.rrect;rSize=0;strokeColor=#999999;fontColor=#999999;fillColor=#ddeeff;" parent="4yytLFHdvMiJD-wZ6Ume-3" vertex="1">
          <mxGeometry x="110" y="128" width="20" height="20" as="geometry" />
        </mxCell>
        <mxCell id="4yytLFHdvMiJD-wZ6Ume-47" value="4" style="strokeWidth=1;shadow=0;dashed=0;align=center;html=1;shape=mxgraph.mockup.forms.rrect;rSize=0;strokeColor=#999999;fontColor=#999999;fillColor=#ddeeff;" parent="4yytLFHdvMiJD-wZ6Ume-3" vertex="1">
          <mxGeometry x="130" y="128" width="20" height="20" as="geometry" />
        </mxCell>
        <mxCell id="4yytLFHdvMiJD-wZ6Ume-48" value="5" style="strokeWidth=1;shadow=0;dashed=0;align=center;html=1;shape=mxgraph.mockup.forms.rrect;rSize=0;strokeColor=#999999;fontColor=#999999;fillColor=#ddeeff;" parent="4yytLFHdvMiJD-wZ6Ume-3" vertex="1">
          <mxGeometry x="10" y="148" width="20" height="20" as="geometry" />
        </mxCell>
        <mxCell id="4yytLFHdvMiJD-wZ6Ume-49" value="6" style="strokeWidth=1;shadow=0;dashed=0;align=center;html=1;shape=mxgraph.mockup.forms.rrect;rSize=0;strokeColor=#999999;fontColor=#999999;fillColor=#ddeeff;" parent="4yytLFHdvMiJD-wZ6Ume-3" vertex="1">
          <mxGeometry x="30" y="148" width="20" height="20" as="geometry" />
        </mxCell>
        <mxCell id="4yytLFHdvMiJD-wZ6Ume-50" value="7" style="strokeWidth=1;shadow=0;dashed=0;align=center;html=1;shape=mxgraph.mockup.forms.rrect;rSize=0;strokeColor=#999999;fontColor=#999999;fillColor=#ddeeff;" parent="4yytLFHdvMiJD-wZ6Ume-3" vertex="1">
          <mxGeometry x="50" y="148" width="20" height="20" as="geometry" />
        </mxCell>
        <mxCell id="4yytLFHdvMiJD-wZ6Ume-51" value="8" style="strokeWidth=1;shadow=0;dashed=0;align=center;html=1;shape=mxgraph.mockup.forms.rrect;rSize=0;strokeColor=#999999;fontColor=#999999;fillColor=#ddeeff;" parent="4yytLFHdvMiJD-wZ6Ume-3" vertex="1">
          <mxGeometry x="70" y="148" width="20" height="20" as="geometry" />
        </mxCell>
        <mxCell id="4yytLFHdvMiJD-wZ6Ume-52" value="9" style="strokeWidth=1;shadow=0;dashed=0;align=center;html=1;shape=mxgraph.mockup.forms.rrect;rSize=0;strokeColor=#999999;fontColor=#999999;fillColor=#ddeeff;" parent="4yytLFHdvMiJD-wZ6Ume-3" vertex="1">
          <mxGeometry x="90" y="148" width="20" height="20" as="geometry" />
        </mxCell>
        <mxCell id="4yytLFHdvMiJD-wZ6Ume-53" value="10" style="strokeWidth=1;shadow=0;dashed=0;align=center;html=1;shape=mxgraph.mockup.forms.rrect;rSize=0;strokeColor=#999999;fontColor=#999999;fillColor=#ddeeff;" parent="4yytLFHdvMiJD-wZ6Ume-3" vertex="1">
          <mxGeometry x="110" y="148" width="20" height="20" as="geometry" />
        </mxCell>
        <mxCell id="4yytLFHdvMiJD-wZ6Ume-54" value="11" style="strokeWidth=1;shadow=0;dashed=0;align=center;html=1;shape=mxgraph.mockup.forms.rrect;rSize=0;strokeColor=#999999;fontColor=#999999;fillColor=#ddeeff;" parent="4yytLFHdvMiJD-wZ6Ume-3" vertex="1">
          <mxGeometry x="130" y="148" width="20" height="20" as="geometry" />
        </mxCell>
        <mxCell id="4yytLFHdvMiJD-wZ6Ume-55" value="24" style="strokeWidth=1;shadow=0;dashed=0;align=center;html=1;shape=mxgraph.mockup.forms.rrect;rSize=0;strokeColor=#ff0000;fontColor=#ffffff;strokeWidth=2;fillColor=#008cff;" parent="4yytLFHdvMiJD-wZ6Ume-3" vertex="1">
          <mxGeometry x="50" y="108" width="20" height="20" as="geometry" />
        </mxCell>
        <mxCell id="4yytLFHdvMiJD-wZ6Ume-56" value="&lt;font style=&quot;font-size: 20px&quot;&gt;When would you like to come in for your [grooming/ training/ boarding] appointment?&lt;/font&gt;" style="text;html=1;align=center;verticalAlign=middle;resizable=0;points=[];autosize=1;" parent="1" vertex="1">
          <mxGeometry x="45" y="1210" width="760" height="20" as="geometry" />
        </mxCell>
        <mxCell id="4yytLFHdvMiJD-wZ6Ume-58" value="&lt;font color=&quot;#ff0000&quot;&gt;Text will depend on the choice of appointment.&lt;/font&gt;" style="text;html=1;align=left;verticalAlign=middle;resizable=0;points=[];autosize=1;" parent="1" vertex="1">
          <mxGeometry x="416" y="1260" width="260" height="20" as="geometry" />
        </mxCell>
        <mxCell id="4yytLFHdvMiJD-wZ6Ume-59" value="" style="endArrow=classic;html=1;exitX=0.435;exitY=0;exitDx=0;exitDy=0;exitPerimeter=0;fontColor=#FF0000;strokeColor=#FF0000;" parent="1" edge="1">
          <mxGeometry width="50" height="50" relative="1" as="geometry">
            <mxPoint x="539.0999999999999" y="1263" as="sourcePoint" />
            <mxPoint x="540" y="1233" as="targetPoint" />
          </mxGeometry>
        </mxCell>
        <mxCell id="4yytLFHdvMiJD-wZ6Ume-60" value="&lt;font style=&quot;font-size: 20px&quot; color=&quot;#000000&quot;&gt;Choose your time&lt;/font&gt;" style="text;html=1;align=center;verticalAlign=middle;resizable=0;points=[];autosize=1;fontColor=#FF0000;" parent="1" vertex="1">
          <mxGeometry x="340" y="1540" width="170" height="20" as="geometry" />
        </mxCell>
        <mxCell id="4yytLFHdvMiJD-wZ6Ume-61" value="&lt;table border=&quot;1&quot; width=&quot;100%&quot; style=&quot;width: 100% ; height: 100% ; border-collapse: collapse&quot;&gt;&lt;tbody&gt;&lt;tr&gt;&lt;td align=&quot;center&quot;&gt;&lt;font color=&quot;#000000&quot;&gt;9:00am&lt;/font&gt;&lt;/td&gt;&lt;td align=&quot;center&quot;&gt;&lt;font color=&quot;#000000&quot;&gt;9:30am&lt;/font&gt;&lt;/td&gt;&lt;td align=&quot;center&quot;&gt;&lt;font color=&quot;#000000&quot;&gt;10:00am&lt;/font&gt;&lt;/td&gt;&lt;/tr&gt;&lt;tr&gt;&lt;td align=&quot;center&quot;&gt;&lt;font color=&quot;#000000&quot;&gt;10:30am&lt;/font&gt;&lt;/td&gt;&lt;td align=&quot;center&quot;&gt;&lt;font color=&quot;#000000&quot;&gt;1:30pm&lt;/font&gt;&lt;/td&gt;&lt;td align=&quot;center&quot;&gt;&lt;font color=&quot;#000000&quot;&gt;2:00pm&lt;/font&gt;&lt;/td&gt;&lt;/tr&gt;&lt;tr&gt;&lt;td align=&quot;center&quot;&gt;&lt;font color=&quot;#000000&quot;&gt;2:30pm&lt;/font&gt;&lt;/td&gt;&lt;td align=&quot;center&quot;&gt;&lt;font color=&quot;#000000&quot;&gt;3:00pm&lt;/font&gt;&lt;/td&gt;&lt;td align=&quot;center&quot;&gt;&lt;font color=&quot;#000000&quot;&gt;3:30pm&lt;/font&gt;&lt;/td&gt;&lt;/tr&gt;&lt;/tbody&gt;&lt;/table&gt;" style="text;html=1;strokeColor=none;fillColor=none;overflow=fill;fontColor=#FF0000;" parent="1" vertex="1">
          <mxGeometry x="335" y="1590" width="180" height="140" as="geometry" />
        </mxCell>
        <mxCell id="4yytLFHdvMiJD-wZ6Ume-63" value="" style="edgeStyle=orthogonalEdgeStyle;rounded=0;orthogonalLoop=1;jettySize=auto;html=1;strokeColor=#FF0000;fontColor=#FF0000;" parent="1" source="4yytLFHdvMiJD-wZ6Ume-62" target="4yytLFHdvMiJD-wZ6Ume-61" edge="1">
          <mxGeometry relative="1" as="geometry" />
        </mxCell>
        <mxCell id="4yytLFHdvMiJD-wZ6Ume-62" value="Unavailable times will be greyed out and un-selectable." style="text;html=1;align=center;verticalAlign=middle;resizable=0;points=[];autosize=1;fontColor=#FF0000;" parent="1" vertex="1">
          <mxGeometry x="270" y="1770" width="310" height="20" as="geometry" />
        </mxCell>
        <mxCell id="4yytLFHdvMiJD-wZ6Ume-64" value="&lt;font style=&quot;font-size: 20px&quot; color=&quot;#000000&quot;&gt;Add to Calendar&lt;/font&gt;" style="text;html=1;align=center;verticalAlign=middle;resizable=0;points=[];autosize=1;fontColor=#FF0000;" parent="1" vertex="1">
          <mxGeometry x="345" y="1850" width="160" height="20" as="geometry" />
        </mxCell>
        <mxCell id="4yytLFHdvMiJD-wZ6Ume-65" value="" style="shape=image;html=1;verticalAlign=top;verticalLabelPosition=bottom;labelBackgroundColor=#ffffff;imageAspect=0;aspect=fixed;image=https://cdn2.iconfinder.com/data/icons/social-media-2259/512/calendar-128.png;fontColor=#FF0000;" parent="1" vertex="1">
          <mxGeometry x="140" y="1910" width="70" height="70" as="geometry" />
        </mxCell>
        <mxCell id="4yytLFHdvMiJD-wZ6Ume-66" value="" style="shape=image;html=1;verticalAlign=top;verticalLabelPosition=bottom;labelBackgroundColor=#ffffff;imageAspect=0;aspect=fixed;image=https://cdn3.iconfinder.com/data/icons/office-flat-8/32/Calendar-128.png;fontColor=#FF0000;" parent="1" vertex="1">
          <mxGeometry x="390" y="1910" width="70" height="70" as="geometry" />
        </mxCell>
        <mxCell id="4yytLFHdvMiJD-wZ6Ume-67" value="" style="shape=image;html=1;verticalAlign=top;verticalLabelPosition=bottom;labelBackgroundColor=#ffffff;imageAspect=0;aspect=fixed;image=https://cdn3.iconfinder.com/data/icons/prettyoffice/128/calendar.png;fontColor=#FF0000;" parent="1" vertex="1">
          <mxGeometry x="620" y="1910" width="70" height="70" as="geometry" />
        </mxCell>
        <mxCell id="4yytLFHdvMiJD-wZ6Ume-68" value="Users will be able to select which calendar to save the appointment to." style="text;html=1;align=center;verticalAlign=middle;resizable=0;points=[];autosize=1;fontColor=#FF0000;" parent="1" vertex="1">
          <mxGeometry x="230" y="2060" width="390" height="20" as="geometry" />
        </mxCell>
        <mxCell id="4yytLFHdvMiJD-wZ6Ume-69" value="" style="endArrow=classic;html=1;strokeColor=#FF0000;" parent="1" edge="1">
          <mxGeometry width="50" height="50" relative="1" as="geometry">
            <mxPoint x="569" y="2050" as="sourcePoint" />
            <mxPoint x="620" y="2000" as="targetPoint" />
          </mxGeometry>
        </mxCell>
        <mxCell id="4yytLFHdvMiJD-wZ6Ume-70" value="" style="endArrow=classic;html=1;strokeColor=#FF0000;" parent="1" edge="1">
          <mxGeometry width="50" height="50" relative="1" as="geometry">
            <mxPoint x="425.95" y="2050" as="sourcePoint" />
            <mxPoint x="424.997619047619" y="2010" as="targetPoint" />
          </mxGeometry>
        </mxCell>
        <mxCell id="4yytLFHdvMiJD-wZ6Ume-71" value="" style="endArrow=classic;html=1;strokeColor=#FF0000;" parent="1" edge="1">
          <mxGeometry width="50" height="50" relative="1" as="geometry">
            <mxPoint x="280" y="2040" as="sourcePoint" />
            <mxPoint x="230" y="2010" as="targetPoint" />
          </mxGeometry>
        </mxCell>
        <mxCell id="G_h2uKbJPCgRiCOjmhy5-2" value="" style="whiteSpace=wrap;html=1;aspect=fixed;" parent="1" vertex="1">
          <mxGeometry x="40" y="2220" width="760" height="760" as="geometry" />
        </mxCell>
        <mxCell id="G_h2uKbJPCgRiCOjmhy5-3" value="&lt;font style=&quot;font-size: 18px&quot;&gt;Sorry, something went wrong. Please try again.&amp;nbsp;&lt;br&gt;You will be redirected to the scheduling tool in 5 seconds...&lt;br&gt;Click &lt;u&gt;here&lt;/u&gt; if you aren&#39;t redirected.&lt;/font&gt;" style="text;html=1;align=center;verticalAlign=middle;resizable=0;points=[];autosize=1;" parent="1" vertex="1">
          <mxGeometry x="165" y="2310" width="480" height="50" as="geometry" />
        </mxCell>
        <mxCell id="sQ1hofavz70fteceHmyq-1" value="&lt;font color=&quot;#ff0000&quot;&gt;Error occurs...&lt;/font&gt;" style="text;html=1;align=center;verticalAlign=middle;resizable=0;points=[];autosize=1;" vertex="1" parent="1">
          <mxGeometry x="369" y="2260" width="90" height="20" as="geometry" />
        </mxCell>
        <mxCell id="sQ1hofavz70fteceHmyq-2" value="" style="shape=image;html=1;verticalAlign=top;verticalLabelPosition=bottom;labelBackgroundColor=#ffffff;imageAspect=0;aspect=fixed;image=https://cdn3.iconfinder.com/data/icons/animals-105/150/icon_animal_cachorro-128.png" vertex="1" parent="1">
          <mxGeometry x="230" y="2400" width="360" height="360" as="geometry" />
        </mxCell>
        <mxCell id="sQ1hofavz70fteceHmyq-3" value="&lt;font style=&quot;font-size: 36px&quot;&gt;pets-r-us&lt;/font&gt;" style="text;html=1;align=center;verticalAlign=middle;resizable=0;points=[];autosize=1;" vertex="1" parent="1">
          <mxGeometry x="328" y="2815" width="160" height="30" as="geometry" />
        </mxCell>
        <mxCell id="sQ1hofavz70fteceHmyq-4" value="&lt;font color=&quot;#ff0000&quot;&gt;Appoint confirmed...&lt;/font&gt;" style="text;html=1;align=center;verticalAlign=middle;resizable=0;points=[];autosize=1;" vertex="1" parent="1">
          <mxGeometry x="345" y="3330" width="120" height="20" as="geometry" />
        </mxCell>
        <mxCell id="sQ1hofavz70fteceHmyq-5" value="" style="whiteSpace=wrap;html=1;aspect=fixed;" vertex="1" parent="1">
          <mxGeometry x="40" y="3370" width="760" height="760" as="geometry" />
        </mxCell>
      </root>
    </mxGraphModel>
  </diagram>
</mxfile>
